<svg width="21" height="21" viewBox="0 0 21 21" fill="none" xmlns="http://www.w3.org/2000/svg">
<path fill-rule="evenodd" clip-rule="evenodd" d="M20.9167 10.5002C20.9167 16.2531 16.253 20.9168 10.5 20.9168C4.7471 20.9168 0.083374 16.2531 0.083374 10.5002C0.083374 4.74719 4.7471 0.0834961 10.5 0.0834961C16.253 0.0834961 20.9167 4.74719 20.9167 10.5002ZM9.45837 5.29183C9.45837 4.71654 9.92478 4.25016 10.5 4.25016C11.0753 4.25016 11.5417 4.71654 11.5417 5.29183L11.5417 11.5418C11.5417 12.1171 11.0753 12.5835 10.5 12.5835C9.92478 12.5835 9.45837 12.1171 9.45837 11.5418L9.45837 5.29183ZM10.5 14.6668C9.92478 14.6668 9.45837 15.1332 9.45837 15.7085C9.45837 16.2838 9.92478 16.7502 10.5 16.7502C11.0753 16.7502 11.5417 16.2838 11.5417 15.7085C11.5417 15.1332 11.0753 14.6668 10.5 14.6668Z" fill="#F05252"/>
</svg>
