<svg width="35" height="35" viewBox="0 0 35 35" fill="none" xmlns="http://www.w3.org/2000/svg">
<path d="M4.375 22.5721H7.26389M7.26389 22.5721C7.26389 24.5804 8.88064 26.2085 10.875 26.2085C12.8694 26.2085 14.4861 24.5804 14.4861 22.5721C14.4861 20.5638 12.8694 18.9358 10.875 18.9358C8.88064 18.9358 7.26389 20.5638 7.26389 22.5721ZM28.9306 13.8449H30.375M4.375 13.8449H14.4861M23.875 17.4812C21.8806 17.4812 20.2639 15.8532 20.2639 13.8449C20.2639 11.8366 21.8806 10.2085 23.875 10.2085C25.8694 10.2085 27.4861 11.8366 27.4861 13.8449C27.4861 15.8532 25.8694 17.4812 23.875 17.4812Z" stroke="#525252" stroke-width="2" stroke-linecap="round" stroke-linejoin="round"/>
<path d="M19.6875 22.604H30.6875" stroke="#FF8F0B" stroke-width="2" stroke-linecap="round"/>
</svg>
